<mxfile host="app.diagrams.net" modified="2024-01-07T00:11:07.942Z" agent="Mozilla/5.0 (Windows NT 10.0; Win64; x64) AppleWebKit/537.36 (KHTML, like Gecko) Chrome/120.0.0.0 Safari/537.36" etag="lwLl3jhsA9cmbSI6e-v4" version="22.1.17" type="github">
  <diagram id="kgpKYQtTHZ0yAKxKKP6v" name="Page-1">
    <mxGraphModel dx="1434" dy="780" grid="1" gridSize="10" guides="1" tooltips="1" connect="1" arrows="1" fold="1" page="1" pageScale="1" pageWidth="850" pageHeight="1100" math="0" shadow="0">
      <root>
        <mxCell id="0" />
        <mxCell id="1" parent="0" />
        <mxCell id="z2AGljo18PZmSH_FLIf1-40" value="&lt;b&gt;&lt;font color=&quot;#0066cc&quot;&gt;Free monitoring and sync &lt;br&gt;WEB INSTANCES&lt;br&gt;&lt;/font&gt;&lt;/b&gt;&lt;br&gt;&lt;br&gt;" style="text;strokeColor=#666666;align=left;fillColor=#f5f5f5;html=1;verticalAlign=middle;whiteSpace=wrap;rounded=0;fontColor=#333333;" vertex="1" parent="1">
          <mxGeometry x="30" y="240" width="760" height="80" as="geometry" />
        </mxCell>
        <mxCell id="z2AGljo18PZmSH_FLIf1-39" value="" style="rounded=0;whiteSpace=wrap;html=1;fillColor=#f5f5f5;strokeColor=#666666;fontColor=#333333;" vertex="1" parent="1">
          <mxGeometry x="30" y="390" width="760" height="380" as="geometry" />
        </mxCell>
        <mxCell id="z2AGljo18PZmSH_FLIf1-1" value="" style="fontColor=#0066CC;verticalAlign=top;verticalLabelPosition=bottom;labelPosition=center;align=center;html=1;outlineConnect=0;fillColor=#CCCCCC;strokeColor=#6881B3;gradientColor=none;gradientDirection=north;strokeWidth=2;shape=mxgraph.networks.pc;" vertex="1" parent="1">
          <mxGeometry x="398" y="70" width="100" height="70" as="geometry" />
        </mxCell>
        <mxCell id="z2AGljo18PZmSH_FLIf1-2" value="" style="html=1;verticalLabelPosition=bottom;align=center;labelBackgroundColor=#ffffff;verticalAlign=top;strokeWidth=2;strokeColor=#0080F0;shadow=0;dashed=0;shape=mxgraph.ios7.icons.smartphone;" vertex="1" parent="1">
          <mxGeometry x="300" y="260" width="18" height="30" as="geometry" />
        </mxCell>
        <mxCell id="z2AGljo18PZmSH_FLIf1-3" value="" style="html=1;verticalLabelPosition=bottom;align=center;labelBackgroundColor=#ffffff;verticalAlign=top;strokeWidth=2;strokeColor=#0080F0;shadow=0;dashed=0;shape=mxgraph.ios7.icons.smartphone;" vertex="1" parent="1">
          <mxGeometry x="380" y="260" width="18" height="30" as="geometry" />
        </mxCell>
        <mxCell id="z2AGljo18PZmSH_FLIf1-4" value="" style="html=1;verticalLabelPosition=bottom;align=center;labelBackgroundColor=#ffffff;verticalAlign=top;strokeWidth=2;strokeColor=#0080F0;shadow=0;dashed=0;shape=mxgraph.ios7.icons.smartphone;" vertex="1" parent="1">
          <mxGeometry x="460" y="260" width="18" height="30" as="geometry" />
        </mxCell>
        <mxCell id="z2AGljo18PZmSH_FLIf1-5" value="" style="html=1;verticalLabelPosition=bottom;align=center;labelBackgroundColor=#ffffff;verticalAlign=top;strokeWidth=2;strokeColor=#0080F0;shadow=0;dashed=0;shape=mxgraph.ios7.icons.smartphone;" vertex="1" parent="1">
          <mxGeometry x="540" y="260" width="18" height="30" as="geometry" />
        </mxCell>
        <mxCell id="z2AGljo18PZmSH_FLIf1-6" value="" style="html=1;verticalLabelPosition=bottom;align=center;labelBackgroundColor=#ffffff;verticalAlign=top;strokeWidth=2;strokeColor=#0080F0;shadow=0;dashed=0;shape=mxgraph.ios7.icons.smartphone;" vertex="1" parent="1">
          <mxGeometry x="700" y="260" width="18" height="30" as="geometry" />
        </mxCell>
        <mxCell id="z2AGljo18PZmSH_FLIf1-7" value="" style="html=1;verticalLabelPosition=bottom;align=center;labelBackgroundColor=#ffffff;verticalAlign=top;strokeWidth=2;strokeColor=#0080F0;shadow=0;dashed=0;shape=mxgraph.ios7.icons.smartphone;" vertex="1" parent="1">
          <mxGeometry x="220" y="260" width="18" height="30" as="geometry" />
        </mxCell>
        <mxCell id="z2AGljo18PZmSH_FLIf1-8" value="" style="endArrow=classic;html=1;rounded=0;exitX=0.333;exitY=-0.033;exitDx=0;exitDy=0;exitPerimeter=0;" edge="1" parent="1" source="z2AGljo18PZmSH_FLIf1-7" target="z2AGljo18PZmSH_FLIf1-1">
          <mxGeometry width="50" height="50" relative="1" as="geometry">
            <mxPoint x="400" y="430" as="sourcePoint" />
            <mxPoint x="450" y="380" as="targetPoint" />
          </mxGeometry>
        </mxCell>
        <mxCell id="z2AGljo18PZmSH_FLIf1-9" value="" style="endArrow=classic;html=1;rounded=0;entryX=0.5;entryY=1;entryDx=0;entryDy=0;entryPerimeter=0;exitX=0.389;exitY=0.033;exitDx=0;exitDy=0;exitPerimeter=0;" edge="1" parent="1" source="z2AGljo18PZmSH_FLIf1-3" target="z2AGljo18PZmSH_FLIf1-1">
          <mxGeometry width="50" height="50" relative="1" as="geometry">
            <mxPoint x="400" y="430" as="sourcePoint" />
            <mxPoint x="450" y="380" as="targetPoint" />
          </mxGeometry>
        </mxCell>
        <mxCell id="z2AGljo18PZmSH_FLIf1-10" value="" style="endArrow=classic;html=1;rounded=0;entryX=0.22;entryY=1;entryDx=0;entryDy=0;entryPerimeter=0;exitX=0.444;exitY=0;exitDx=0;exitDy=0;exitPerimeter=0;" edge="1" parent="1" source="z2AGljo18PZmSH_FLIf1-2" target="z2AGljo18PZmSH_FLIf1-1">
          <mxGeometry width="50" height="50" relative="1" as="geometry">
            <mxPoint x="400" y="430" as="sourcePoint" />
            <mxPoint x="450" y="380" as="targetPoint" />
          </mxGeometry>
        </mxCell>
        <mxCell id="z2AGljo18PZmSH_FLIf1-11" value="" style="endArrow=classic;html=1;rounded=0;exitX=0.444;exitY=0.067;exitDx=0;exitDy=0;exitPerimeter=0;" edge="1" parent="1" source="z2AGljo18PZmSH_FLIf1-4" target="z2AGljo18PZmSH_FLIf1-1">
          <mxGeometry width="50" height="50" relative="1" as="geometry">
            <mxPoint x="400" y="430" as="sourcePoint" />
            <mxPoint x="450" y="380" as="targetPoint" />
          </mxGeometry>
        </mxCell>
        <mxCell id="z2AGljo18PZmSH_FLIf1-12" value="" style="endArrow=classic;html=1;rounded=0;exitX=0.389;exitY=-0.133;exitDx=0;exitDy=0;exitPerimeter=0;" edge="1" parent="1" source="z2AGljo18PZmSH_FLIf1-5" target="z2AGljo18PZmSH_FLIf1-1">
          <mxGeometry width="50" height="50" relative="1" as="geometry">
            <mxPoint x="400" y="430" as="sourcePoint" />
            <mxPoint x="450" y="380" as="targetPoint" />
          </mxGeometry>
        </mxCell>
        <mxCell id="z2AGljo18PZmSH_FLIf1-13" value="" style="endArrow=classic;html=1;rounded=0;entryX=0.95;entryY=1;entryDx=0;entryDy=0;entryPerimeter=0;exitX=0.444;exitY=-0.067;exitDx=0;exitDy=0;exitPerimeter=0;" edge="1" parent="1" source="z2AGljo18PZmSH_FLIf1-6" target="z2AGljo18PZmSH_FLIf1-1">
          <mxGeometry width="50" height="50" relative="1" as="geometry">
            <mxPoint x="400" y="430" as="sourcePoint" />
            <mxPoint x="450" y="380" as="targetPoint" />
          </mxGeometry>
        </mxCell>
        <mxCell id="z2AGljo18PZmSH_FLIf1-14" value="&lt;p style=&quot;line-height: 120%;&quot;&gt;&lt;font color=&quot;#007fff&quot;&gt;&lt;b&gt;&lt;font style=&quot;font-size: 14px;&quot;&gt;CORE Dashboard&amp;nbsp;&lt;/font&gt;&lt;/b&gt;&lt;b style=&quot;background-color: initial;&quot;&gt;&lt;font style=&quot;font-size: 14px;&quot;&gt;Platform&lt;/font&gt;&lt;/b&gt;&lt;/font&gt;&lt;/p&gt;" style="text;strokeColor=none;align=left;fillColor=none;html=1;verticalAlign=middle;whiteSpace=wrap;rounded=0;" vertex="1" parent="1">
          <mxGeometry x="361" y="40" width="201" height="24" as="geometry" />
        </mxCell>
        <mxCell id="z2AGljo18PZmSH_FLIf1-30" style="edgeStyle=orthogonalEdgeStyle;rounded=0;orthogonalLoop=1;jettySize=auto;html=1;exitX=1;exitY=0.5;exitDx=0;exitDy=0;entryX=0;entryY=0.5;entryDx=0;entryDy=0;" edge="1" parent="1" source="z2AGljo18PZmSH_FLIf1-16" target="z2AGljo18PZmSH_FLIf1-26">
          <mxGeometry relative="1" as="geometry" />
        </mxCell>
        <mxCell id="z2AGljo18PZmSH_FLIf1-16" value="&lt;span style=&quot;background-color: initial;&quot;&gt;&lt;font color=&quot;#0066cc&quot; style=&quot;font-size: 15px;&quot;&gt;&lt;b&gt;Amazon&lt;/b&gt;&lt;/font&gt;&lt;/span&gt;" style="rounded=1;arcSize=9;fillColor=#f5f5f5;align=center;spacingLeft=5;strokeColor=#666666;html=1;strokeWidth=3;fontSize=12;fontColor=#333333;" vertex="1" parent="1">
          <mxGeometry x="160" y="400" width="130" height="40" as="geometry" />
        </mxCell>
        <mxCell id="z2AGljo18PZmSH_FLIf1-15" value="&lt;font style=&quot;font-size: 15px;&quot;&gt;SPOTS&lt;/font&gt;" style="fillColor=#f5f5f5;strokeColor=#99CCFF;html=1;fontSize=11;fontStyle=0;align=center;fontStyle=1;fontSize=11;rotation=90;fontColor=#333333;strokeWidth=1;" vertex="1" parent="1">
          <mxGeometry x="585" y="565" width="360" height="25" as="geometry" />
        </mxCell>
        <mxCell id="z2AGljo18PZmSH_FLIf1-21" value="&lt;span style=&quot;background-color: initial;&quot;&gt;&lt;font color=&quot;#0066cc&quot; style=&quot;font-size: 15px;&quot;&gt;&lt;b&gt;Amazon&lt;/b&gt;&lt;/font&gt;&lt;/span&gt;" style="rounded=1;arcSize=9;fillColor=#f5f5f5;align=center;spacingLeft=5;strokeColor=#666666;html=1;strokeWidth=3;fontSize=12;fontColor=#333333;" vertex="1" parent="1">
          <mxGeometry x="450" y="460" width="130" height="40" as="geometry" />
        </mxCell>
        <mxCell id="z2AGljo18PZmSH_FLIf1-22" value="&lt;span style=&quot;background-color: initial;&quot;&gt;&lt;font color=&quot;#0066cc&quot; style=&quot;font-size: 15px;&quot;&gt;&lt;b&gt;Kubernetes&lt;/b&gt;&lt;/font&gt;&lt;/span&gt;" style="rounded=1;arcSize=9;fillColor=#f5f5f5;align=center;spacingLeft=5;strokeColor=#666666;html=1;strokeWidth=3;fontSize=12;fontColor=#333333;" vertex="1" parent="1">
          <mxGeometry x="160" y="670" width="130" height="40" as="geometry" />
        </mxCell>
        <mxCell id="z2AGljo18PZmSH_FLIf1-23" value="&lt;span style=&quot;background-color: initial;&quot;&gt;&lt;font color=&quot;#0066cc&quot; style=&quot;font-size: 15px;&quot;&gt;&lt;b&gt;AliExpress&lt;/b&gt;&lt;/font&gt;&lt;/span&gt;" style="rounded=1;arcSize=9;fillColor=#f5f5f5;align=center;spacingLeft=5;strokeColor=#666666;html=1;strokeWidth=3;fontSize=12;fontColor=#333333;" vertex="1" parent="1">
          <mxGeometry x="160" y="520" width="130" height="40" as="geometry" />
        </mxCell>
        <mxCell id="z2AGljo18PZmSH_FLIf1-24" value="&lt;span style=&quot;background-color: initial;&quot;&gt;&lt;font color=&quot;#0066cc&quot; style=&quot;font-size: 15px;&quot;&gt;&lt;b&gt;Ebay&lt;/b&gt;&lt;/font&gt;&lt;/span&gt;" style="rounded=1;arcSize=9;fillColor=#f5f5f5;align=center;spacingLeft=5;strokeColor=#666666;html=1;strokeWidth=3;fontSize=12;fontColor=#333333;" vertex="1" parent="1">
          <mxGeometry x="160" y="570" width="130" height="40" as="geometry" />
        </mxCell>
        <mxCell id="z2AGljo18PZmSH_FLIf1-31" style="edgeStyle=orthogonalEdgeStyle;rounded=0;orthogonalLoop=1;jettySize=auto;html=1;exitX=1;exitY=0.5;exitDx=0;exitDy=0;entryX=0;entryY=0.5;entryDx=0;entryDy=0;" edge="1" parent="1" source="z2AGljo18PZmSH_FLIf1-25" target="z2AGljo18PZmSH_FLIf1-21">
          <mxGeometry relative="1" as="geometry" />
        </mxCell>
        <mxCell id="z2AGljo18PZmSH_FLIf1-25" value="&lt;span style=&quot;background-color: initial;&quot;&gt;&lt;font color=&quot;#0066cc&quot; style=&quot;font-size: 15px;&quot;&gt;&lt;b&gt;Oracle&lt;/b&gt;&lt;/font&gt;&lt;/span&gt;" style="rounded=1;arcSize=9;fillColor=#f5f5f5;align=center;spacingLeft=5;strokeColor=#666666;html=1;strokeWidth=3;fontSize=12;fontColor=#333333;" vertex="1" parent="1">
          <mxGeometry x="160" y="460" width="130" height="40" as="geometry" />
        </mxCell>
        <mxCell id="z2AGljo18PZmSH_FLIf1-26" value="&lt;span style=&quot;background-color: initial;&quot;&gt;&lt;font color=&quot;#0066cc&quot; style=&quot;font-size: 15px;&quot;&gt;&lt;b&gt;GCP&lt;/b&gt;&lt;/font&gt;&lt;/span&gt;" style="rounded=1;arcSize=9;fillColor=#f5f5f5;align=center;spacingLeft=5;strokeColor=#666666;html=1;strokeWidth=3;fontSize=12;fontColor=#333333;" vertex="1" parent="1">
          <mxGeometry x="450" y="400" width="130" height="40" as="geometry" />
        </mxCell>
        <mxCell id="z2AGljo18PZmSH_FLIf1-27" value="&lt;span style=&quot;background-color: initial;&quot;&gt;&lt;font color=&quot;#0066cc&quot; style=&quot;font-size: 15px;&quot;&gt;&lt;b&gt;Oracle&lt;/b&gt;&lt;/font&gt;&lt;/span&gt;" style="rounded=1;arcSize=9;fillColor=#f5f5f5;align=center;spacingLeft=5;strokeColor=#666666;html=1;strokeWidth=3;fontSize=12;fontColor=#333333;" vertex="1" parent="1">
          <mxGeometry x="450" y="520" width="130" height="40" as="geometry" />
        </mxCell>
        <mxCell id="z2AGljo18PZmSH_FLIf1-29" style="edgeStyle=orthogonalEdgeStyle;rounded=0;orthogonalLoop=1;jettySize=auto;html=1;exitX=1;exitY=0.5;exitDx=0;exitDy=0;entryX=0.5;entryY=1;entryDx=0;entryDy=0;" edge="1" parent="1" source="z2AGljo18PZmSH_FLIf1-22" target="z2AGljo18PZmSH_FLIf1-22">
          <mxGeometry relative="1" as="geometry" />
        </mxCell>
        <mxCell id="z2AGljo18PZmSH_FLIf1-34" style="edgeStyle=orthogonalEdgeStyle;rounded=0;orthogonalLoop=1;jettySize=auto;html=1;exitX=0;exitY=0.5;exitDx=0;exitDy=0;entryX=0.556;entryY=1;entryDx=0;entryDy=0;entryPerimeter=0;" edge="1" parent="1" source="z2AGljo18PZmSH_FLIf1-24" target="z2AGljo18PZmSH_FLIf1-7">
          <mxGeometry relative="1" as="geometry">
            <Array as="points">
              <mxPoint x="40" y="590" />
              <mxPoint x="40" y="290" />
            </Array>
          </mxGeometry>
        </mxCell>
        <mxCell id="z2AGljo18PZmSH_FLIf1-35" style="edgeStyle=orthogonalEdgeStyle;rounded=0;orthogonalLoop=1;jettySize=auto;html=1;exitX=1;exitY=0.5;exitDx=0;exitDy=0;entryX=0.611;entryY=1.067;entryDx=0;entryDy=0;entryPerimeter=0;" edge="1" parent="1" source="z2AGljo18PZmSH_FLIf1-53" target="z2AGljo18PZmSH_FLIf1-6">
          <mxGeometry relative="1" as="geometry">
            <Array as="points">
              <mxPoint x="711" y="687" />
            </Array>
          </mxGeometry>
        </mxCell>
        <mxCell id="z2AGljo18PZmSH_FLIf1-36" style="edgeStyle=orthogonalEdgeStyle;rounded=0;orthogonalLoop=1;jettySize=auto;html=1;exitX=1;exitY=0.5;exitDx=0;exitDy=0;entryX=1;entryY=0.533;entryDx=0;entryDy=0;entryPerimeter=0;" edge="1" parent="1" source="z2AGljo18PZmSH_FLIf1-27" target="z2AGljo18PZmSH_FLIf1-5">
          <mxGeometry relative="1" as="geometry" />
        </mxCell>
        <mxCell id="z2AGljo18PZmSH_FLIf1-37" style="edgeStyle=orthogonalEdgeStyle;rounded=0;orthogonalLoop=1;jettySize=auto;html=1;exitX=0;exitY=0.5;exitDx=0;exitDy=0;entryX=0.611;entryY=1;entryDx=0;entryDy=0;entryPerimeter=0;" edge="1" parent="1" source="z2AGljo18PZmSH_FLIf1-25" target="z2AGljo18PZmSH_FLIf1-2">
          <mxGeometry relative="1" as="geometry">
            <Array as="points">
              <mxPoint x="80" y="480" />
              <mxPoint x="80" y="310" />
              <mxPoint x="311" y="310" />
            </Array>
          </mxGeometry>
        </mxCell>
        <mxCell id="z2AGljo18PZmSH_FLIf1-38" style="edgeStyle=orthogonalEdgeStyle;rounded=0;orthogonalLoop=1;jettySize=auto;html=1;exitX=0.5;exitY=0;exitDx=0;exitDy=0;entryX=0.444;entryY=1.067;entryDx=0;entryDy=0;entryPerimeter=0;" edge="1" parent="1" source="z2AGljo18PZmSH_FLIf1-42" target="z2AGljo18PZmSH_FLIf1-3">
          <mxGeometry relative="1" as="geometry" />
        </mxCell>
        <mxCell id="z2AGljo18PZmSH_FLIf1-41" value="&lt;b&gt;&lt;font style=&quot;font-size: 23px;&quot; color=&quot;#ff3333&quot;&gt;SYNCHECK&lt;/font&gt;&lt;/b&gt;" style="text;strokeColor=none;align=center;fillColor=none;html=1;verticalAlign=middle;whiteSpace=wrap;rounded=0;" vertex="1" parent="1">
          <mxGeometry x="40" y="40" width="150" height="30" as="geometry" />
        </mxCell>
        <mxCell id="z2AGljo18PZmSH_FLIf1-45" value="" style="sketch=0;pointerEvents=1;shadow=0;dashed=0;html=1;strokeColor=none;fillColor=#505050;labelPosition=center;verticalLabelPosition=bottom;verticalAlign=top;outlineConnect=0;align=center;shape=mxgraph.office.communications.exchange_active_sync;fillColor=#2072B8;" vertex="1" parent="1">
          <mxGeometry x="342" y="400" width="38" height="40" as="geometry" />
        </mxCell>
        <mxCell id="z2AGljo18PZmSH_FLIf1-48" value="" style="sketch=0;pointerEvents=1;shadow=0;dashed=0;html=1;strokeColor=none;fillColor=#505050;labelPosition=center;verticalLabelPosition=bottom;verticalAlign=top;outlineConnect=0;align=center;shape=mxgraph.office.communications.exchange_active_sync;fillColor=#2072B8;" vertex="1" parent="1">
          <mxGeometry x="342" y="460" width="38" height="40" as="geometry" />
        </mxCell>
        <mxCell id="z2AGljo18PZmSH_FLIf1-53" value="" style="shadow=0;dashed=0;html=1;strokeColor=none;fillColor=#4495D1;labelPosition=center;verticalLabelPosition=bottom;verticalAlign=top;align=center;outlineConnect=0;shape=mxgraph.veeam.2d.alert;" vertex="1" parent="1">
          <mxGeometry x="431.4" y="670" width="33.2" height="33.2" as="geometry" />
        </mxCell>
        <mxCell id="z2AGljo18PZmSH_FLIf1-57" value="" style="edgeStyle=orthogonalEdgeStyle;rounded=0;orthogonalLoop=1;jettySize=auto;html=1;exitX=0.5;exitY=0;exitDx=0;exitDy=0;entryX=0.444;entryY=1.067;entryDx=0;entryDy=0;entryPerimeter=0;" edge="1" parent="1" source="z2AGljo18PZmSH_FLIf1-16" target="z2AGljo18PZmSH_FLIf1-42">
          <mxGeometry relative="1" as="geometry">
            <mxPoint x="225" y="400" as="sourcePoint" />
            <mxPoint x="388" y="292" as="targetPoint" />
          </mxGeometry>
        </mxCell>
        <mxCell id="z2AGljo18PZmSH_FLIf1-42" value="" style="shadow=0;dashed=0;html=1;strokeColor=none;fillColor=#4495D1;labelPosition=center;verticalLabelPosition=bottom;verticalAlign=top;align=center;outlineConnect=0;shape=mxgraph.veeam.2d.alert;" vertex="1" parent="1">
          <mxGeometry x="208.39999999999998" y="339.8" width="33.2" height="33.2" as="geometry" />
        </mxCell>
        <mxCell id="z2AGljo18PZmSH_FLIf1-58" value="" style="endArrow=classic;html=1;rounded=0;exitX=1;exitY=0.5;exitDx=0;exitDy=0;" edge="1" parent="1" source="z2AGljo18PZmSH_FLIf1-22">
          <mxGeometry width="50" height="50" relative="1" as="geometry">
            <mxPoint x="400" y="540" as="sourcePoint" />
            <mxPoint x="430" y="687" as="targetPoint" />
          </mxGeometry>
        </mxCell>
        <mxCell id="z2AGljo18PZmSH_FLIf1-59" value="" style="shape=flexArrow;endArrow=classic;startArrow=classic;html=1;rounded=0;entryX=0;entryY=0.5;entryDx=0;entryDy=0;exitX=1;exitY=0.5;exitDx=0;exitDy=0;" edge="1" parent="1" source="z2AGljo18PZmSH_FLIf1-23" target="z2AGljo18PZmSH_FLIf1-27">
          <mxGeometry width="100" height="100" relative="1" as="geometry">
            <mxPoint x="318" y="640" as="sourcePoint" />
            <mxPoint x="418" y="540" as="targetPoint" />
          </mxGeometry>
        </mxCell>
        <mxCell id="z2AGljo18PZmSH_FLIf1-49" value="" style="sketch=0;pointerEvents=1;shadow=0;dashed=0;html=1;strokeColor=none;fillColor=#505050;labelPosition=center;verticalLabelPosition=bottom;verticalAlign=top;outlineConnect=0;align=center;shape=mxgraph.office.communications.exchange_active_sync;fillColor=#2072B8;" vertex="1" parent="1">
          <mxGeometry x="342" y="525" width="38" height="40" as="geometry" />
        </mxCell>
      </root>
    </mxGraphModel>
  </diagram>
</mxfile>
